<svg xmlns="http://www.w3.org/2000/svg" width="1440" height="900" viewBox="0 0 1440 900" fill="none">
  <g id="canvas"><rect width="1440" height="900" fill="#F2F1E6"/></g>
  <g id="review-header"><rect width="1440" height="58" fill="#F2F1E6"/><line x1="0" y1="57.5" x2="1440" y2="57.5" stroke="#121212" stroke-opacity=".2"/><rect x="22" y="20" width="16" height="16" rx="5" fill="#A855F7"/><text x="50" y="34" fill="#121212" font-family="PingFang SC, Noto Sans SC, sans-serif" font-size="13" font-weight="700">母版人像 Agent</text><text x="187" y="34" fill="#121212" fill-opacity=".62" font-family="PingFang SC, Noto Sans SC, sans-serif" font-size="11">两张关键帧 · Party Rock + 苹方</text><rect x="1243" y="13" width="77" height="32" rx="16" fill="#F2F1E6" stroke="#121212"/><text x="1260" y="33" fill="#121212" font-family="PingFang SC, Noto Sans SC, sans-serif" font-size="12" font-weight="600">E01 入口</text><rect x="1328" y="13" width="91" height="32" rx="16" fill="#A855F7" stroke="#121212"/><text x="1341" y="33" fill="#121212" font-family="PingFang SC, Noto Sans SC, sans-serif" font-size="12" font-weight="600">E02 Agent</text></g>
  <g id="global-nav"><rect x="0" y="58" width="84" height="842" fill="#000000"/><rect x="20" y="78" width="46" height="46" rx="15" fill="#A855F7" stroke="#F2F1E6"/><circle cx="43" cy="101" r="12" stroke="#121212" stroke-width="1.7"/><path d="M43 92V110M34 101H52" stroke="#121212" stroke-width="1.7" stroke-linecap="round"/><rect x="11" y="153" width="62" height="62" rx="15" fill="#C084FC" stroke="#F2F1E6"/><path d="m27 183 16-14 16 14M32 181v19h22v-19" stroke="#121212" stroke-width="1.7" stroke-linecap="round" stroke-linejoin="round"/><g fill="none" stroke="#F2F1E6" stroke-width="1.7"><circle cx="42" cy="260" r="9"/><circle cx="42" cy="256" r="3"/><path d="M35 273c.7-4.5 3.3-6.5 7-6.5s6.3 2 7 6.5"/><path d="M32 307h22M32 315h22M32 323h15" stroke-linecap="round"/></g><line x1="19" y1="824" x2="65" y2="824" stroke="#F2F1E6" stroke-opacity=".24"/><g fill="none" stroke="#F2F1E6" stroke-width="1.7"><circle cx="42" cy="850" r="3"/><circle cx="42" cy="850" r="9" stroke-dasharray="3 4"/></g><circle cx="42" cy="884" r="11" stroke="#F2F1E6" stroke-width="1.7"/><path d="M42 879v6M42 890h.01" stroke="#F2F1E6" stroke-width="1.7" stroke-linecap="round"/></g>
  <g id="context-rail"><rect x="84" y="58" width="204" height="842" fill="#121212"/><path d="M288 58h-70c33 39 52 87 52 146 0 35-8 67-23 96h41V58Z" fill="#A855F7" fill-opacity=".2"/><text x="104" y="92" fill="#F2F1E6" fill-opacity=".62" font-family="PingFang SC, Noto Sans SC, sans-serif" font-size="11" letter-spacing="1.4">当前任务</text><text x="104" y="127" fill="#F2F1E6" font-family="PingFang SC, Noto Sans SC, sans-serif" font-size="22" font-weight="700">人像对齐</text><line x1="104" y1="164" x2="268" y2="164" stroke="#F2F1E6" stroke-opacity=".24"/><text x="104" y="188" fill="#F2F1E6" fill-opacity=".62" font-family="PingFang SC, Noto Sans SC, sans-serif" font-size="12">母版参照</text><rect x="104" y="204" width="42" height="48" rx="13" fill="#A855F7" stroke="#F2F1E6"/><circle cx="125" cy="221" r="9" stroke="#121212" stroke-width="1.5"/><path d="M115 247c1-7 4-10 10-10s9 3 10 10" stroke="#121212" stroke-width="1.5"/><text x="157" y="226" fill="#F2F1E6" font-family="PingFang SC, Noto Sans SC, sans-serif" font-size="13" font-weight="600">母版 01</text><text x="157" y="244" fill="#F2F1E6" fill-opacity=".56" font-family="PingFang SC, Noto Sans SC, sans-serif" font-size="11">已确认 · 版本 01</text><rect x="104" y="269" width="103" height="27" rx="14" fill="#A855F7" fill-opacity=".18" stroke="#F2F1E6" stroke-opacity=".24"/><circle cx="117" cy="282.5" r="3.5" fill="#C084FC"/><text x="127" y="286" fill="#F2F1E6" font-family="PingFang SC, Noto Sans SC, sans-serif" font-size="11">母版已确认</text><line x1="104" y1="326" x2="268" y2="326" stroke="#F2F1E6" stroke-opacity=".24"/><text x="104" y="351" fill="#F2F1E6" fill-opacity=".62" font-family="PingFang SC, Noto Sans SC, sans-serif" font-size="12">会话</text><text x="104" y="382" fill="#F2F1E6" fill-opacity=".78" font-family="PingFang SC, Noto Sans SC, sans-serif" font-size="12">＋ 新会话</text><text x="104" y="415" fill="#F2F1E6" fill-opacity=".78" font-family="PingFang SC, Noto Sans SC, sans-serif" font-size="12">最近一次对齐</text><text x="104" y="847" fill="#F2F1E6" fill-opacity=".56" font-family="PingFang SC, Noto Sans SC, sans-serif" font-size="11">项目只记录脱敏状态；</text><text x="104" y="866" fill="#F2F1E6" fill-opacity=".56" font-family="PingFang SC, Noto Sans SC, sans-serif" font-size="11">结果图不会成为永久图库。</text></g>
  <g id="alignment-workspace"><rect x="288" y="58" width="792" height="842" fill="#121212"/><path d="M262 267c170-148 327-81 466 15 100 69 205 57 370-51" stroke="#A855F7" stroke-opacity=".27" stroke-width="62" stroke-linecap="round"/><path d="M254 718c141 95 312 78 430-15 107-84 190-152 382-154" stroke="#C084FC" stroke-opacity=".23" stroke-width="55" stroke-linecap="round"/><path d="M292 840c119-98 264-99 378-50 88 37 168 4 278-103" stroke="#A855F7" stroke-opacity=".17" stroke-width="25" stroke-linecap="round"/><text x="320" y="94" fill="#F2F1E6" fill-opacity=".62" font-family="PingFang SC, Noto Sans SC, sans-serif" font-size="11" letter-spacing="1.4">对齐工作区</text><text x="320" y="135" fill="#F2F1E6" font-family="PingFang SC, Noto Sans SC, sans-serif" font-size="30" font-weight="700">Agent 对话</text><rect x="320" y="154" width="181" height="28" rx="14" fill="#A855F7" fill-opacity=".18" stroke="#F2F1E6" stroke-opacity=".24"/><circle cx="336" cy="168" r="5" fill="#C084FC"/><text x="349" y="172" fill="#F2F1E6" fill-opacity=".78" font-family="PingFang SC, Noto Sans SC, sans-serif" font-size="11">当前任务 · 对齐中</text><rect x="320" y="205" width="728" height="51" rx="16" fill="#F2F1E6" fill-opacity=".1" stroke="#F2F1E6" stroke-opacity=".24"/><text x="342" y="237" fill="#F2F1E6" font-family="PingFang SC, Noto Sans SC, sans-serif" font-size="13" font-weight="600">人像对齐 · 当前任务</text><circle cx="992" cy="230" r="4" fill="#A855F7"/><text x="1018" y="234" text-anchor="end" fill="#F2F1E6" fill-opacity=".66" font-family="PingFang SC, Noto Sans SC, sans-serif" font-size="11">正在等你表达目标</text><g id="photo-stage"><rect x="320" y="272" width="510" height="562" rx="28" fill="#121212" stroke="#F2F1E6" stroke-opacity=".24"/><text x="342" y="307" fill="#F2F1E6" font-family="PingFang SC, Noto Sans SC, sans-serif" font-size="15" font-weight="600">照片对齐</text><text x="808" y="307" text-anchor="end" fill="#F2F1E6" fill-opacity=".6" font-family="PingFang SC, Noto Sans SC, sans-serif" font-size="11">母版 01 · 当前照片</text><rect x="370" y="384" width="174" height="240" rx="21" fill="#F2F1E6"/><circle cx="457" cy="457" r="43" stroke="#121212" stroke-opacity=".7" stroke-width="2"/><path d="M371 621c25-51 54-67 86-67s61 16 87 67" stroke="#121212" stroke-opacity=".7" stroke-width="2"/><text x="457" y="605" text-anchor="middle" fill="#121212" fill-opacity=".68" font-family="PingFang SC, Noto Sans SC, sans-serif" font-size="10">当前照片</text><rect x="606" y="384" width="174" height="240" rx="21" fill="#F2F1E6"/><circle cx="693" cy="457" r="43" stroke="#121212" stroke-opacity=".7" stroke-width="2"/><path d="M607 621c25-51 54-67 86-67s61 16 87 67" stroke="#121212" stroke-opacity=".7" stroke-width="2"/><text x="693" y="605" text-anchor="middle" fill="#121212" fill-opacity=".68" font-family="PingFang SC, Noto Sans SC, sans-serif" font-size="10">母版照片</text><line x1="457" y1="500" x2="693" y2="500" stroke="#A855F7" stroke-width="2"/><circle cx="457" cy="500" r="5" fill="#A855F7"/><circle cx="693" cy="500" r="5" fill="#A855F7"/><circle cx="575" cy="500" r="21" fill="#A855F7" stroke="#F2F1E6"/><path d="M575 488v24M563 500h24" stroke="#121212" stroke-width="1.5" stroke-linecap="round"/><text x="342" y="789" fill="#F2F1E6" fill-opacity=".7" font-family="PingFang SC, Noto Sans SC, sans-serif" font-size="11">只处理可可靠测量的脸型与眼睛</text><text x="808" y="789" text-anchor="end" fill="#F2F1E6" fill-opacity=".7" font-family="PingFang SC, Noto Sans SC, sans-serif" font-size="11">对齐轴</text></g><g id="status-rail"><rect x="846" y="272" width="202" height="562" rx="28" fill="#F2F1E6"/><text x="868" y="314" fill="#121212" font-family="PingFang SC, Noto Sans SC, sans-serif" font-size="15" font-weight="600">当前状态</text><line x1="868" y1="338" x2="1026" y2="338" stroke="#121212" stroke-opacity=".2"/><g font-family="PingFang SC, Noto Sans SC, sans-serif" font-size="11"><text x="868" y="374" fill="#121212">照片质量</text><text x="1026" y="374" text-anchor="end" fill="#121212" fill-opacity=".62">待检查</text><line x1="868" y1="390" x2="1026" y2="390" stroke="#121212" stroke-opacity=".2"/><text x="868" y="426" fill="#121212">同人关系</text><text x="1026" y="426" text-anchor="end" fill="#121212" fill-opacity=".62">待确认</text><line x1="868" y1="442" x2="1026" y2="442" stroke="#121212" stroke-opacity=".2"/><text x="868" y="478" fill="#121212">内容安全</text><text x="1026" y="478" text-anchor="end" fill="#121212" fill-opacity=".62">自动检查</text></g><text x="868" y="552" fill="#121212" fill-opacity=".62" font-family="PingFang SC, Noto Sans SC, sans-serif" font-size="10">这些检查由系统自动完成，</text><text x="868" y="570" fill="#121212" fill-opacity=".62" font-family="PingFang SC, Noto Sans SC, sans-serif" font-size="10">不需要你逐项点击。</text></g></g>
  <g id="agent-panel"><rect x="1080" y="58" width="360" height="842" fill="#F2F1E6" stroke="#121212"/><line x1="1080" y1="118" x2="1440" y2="118" stroke="#121212" stroke-opacity=".2"/><text x="1100" y="96" fill="#121212" font-family="PingFang SC, Noto Sans SC, sans-serif" font-size="16" font-weight="700">Agent</text><text x="1418" y="96" text-anchor="end" fill="#121212" fill-opacity=".62" font-family="PingFang SC, Noto Sans SC, sans-serif" font-size="11">自然语言入口</text><rect x="1100" y="165" width="320" height="78" rx="17" fill="#C084FC" fill-opacity=".36" stroke="#121212" stroke-opacity=".2"/><text x="1115" y="190" fill="#121212" fill-opacity=".62" font-family="PingFang SC, Noto Sans SC, sans-serif" font-size="10">你</text><text x="1115" y="217" fill="#121212" font-family="PingFang SC, Noto Sans SC, sans-serif" font-size="13">把这张向母版靠拢，保留妆面。</text><rect x="1100" y="263" width="320" height="78" rx="17" fill="#FFFFFF" fill-opacity=".42" stroke="#121212" stroke-opacity=".2"/><text x="1115" y="288" fill="#121212" fill-opacity=".62" font-family="PingFang SC, Noto Sans SC, sans-serif" font-size="10">Agent</text><text x="1115" y="315" fill="#121212" font-family="PingFang SC, Noto Sans SC, sans-serif" font-size="13">收到。我会保留妆面，只处理可可靠测量的</text><text x="1115" y="334" fill="#121212" font-family="PingFang SC, Noto Sans SC, sans-serif" font-size="13">脸型和眼睛。</text><rect x="1100" y="361" width="320" height="164" rx="17" fill="#FFFFFF" fill-opacity=".42" stroke="#121212"/><text x="1115" y="390" fill="#121212" font-family="PingFang SC, Noto Sans SC, sans-serif" font-size="12" font-weight="600">关键事实</text><text x="1405" y="390" text-anchor="end" fill="#121212" fill-opacity=".62" font-family="PingFang SC, Noto Sans SC, sans-serif" font-size="10">可展开</text><line x1="1115" y1="408" x2="1405" y2="408" stroke="#121212" stroke-opacity=".2"/><text x="1115" y="437" fill="#121212" font-family="PingFang SC, Noto Sans SC, sans-serif" font-size="11">当前照片</text><text x="1405" y="437" text-anchor="end" fill="#121212" fill-opacity=".62" font-family="PingFang SC, Noto Sans SC, sans-serif" font-size="11">已收到</text><line x1="1115" y1="451" x2="1405" y2="451" stroke="#121212" stroke-opacity=".2"/><text x="1115" y="480" fill="#121212" font-family="PingFang SC, Noto Sans SC, sans-serif" font-size="11">母版关系</text><text x="1405" y="480" text-anchor="end" fill="#121212" fill-opacity=".62" font-family="PingFang SC, Noto Sans SC, sans-serif" font-size="11">等待检查</text><line x1="1115" y1="494" x2="1405" y2="494" stroke="#121212" stroke-opacity=".2"/><text x="1115" y="523" fill="#121212" font-family="PingFang SC, Noto Sans SC, sans-serif" font-size="11">安全检查</text><text x="1405" y="523" text-anchor="end" fill="#121212" fill-opacity=".62" font-family="PingFang SC, Noto Sans SC, sans-serif" font-size="11">自动进行</text><rect x="1100" y="705" width="320" height="99" rx="14" fill="#F2F1E6" stroke="#121212"/><text x="1115" y="736" fill="#121212" fill-opacity=".62" font-family="PingFang SC, Noto Sans SC, sans-serif" font-size="13">继续告诉我想保留什么…</text><circle cx="1390" cy="770" r="17" fill="#C084FC" stroke="#121212"/><path d="m1382 770 10-5-3 10-2-4-5-1Z" stroke="#121212" stroke-width="1.3" stroke-linejoin="round"/><text x="1102" y="833" fill="#121212" fill-opacity=".58" font-family="PingFang SC, Noto Sans SC, sans-serif" font-size="10">只显示关键事实、关键决策和下一步。</text></g>
</svg>
